#Comment line ignore any data following # character 
#Hierarchical Translation and Rotation (.htr) file 
[Header]	
#Header keywords are followed by a single value 
FileType HTR		#Single word string
DataType HTRS		#Translation followed by rotation and scale data
FileVersion 1		#integer
NumSegments 84		#integer
NumFrames 2		#integer
DataFrameRate 30		#integer, data frame rate in this file
EulerRotationOrder ZYX
CalibrationUnits mm
RotationUnits Degrees
GlobalAxisofGravity Y
BoneLengthAxis Y
ScaleFactor 1.00
[SegmentNames&Hierarchy]
#CHILD	PARENT
MASTER GLOBAL
root MASTER
chest root
L_mid_tent01 root
R_mid_tent01 root
spine01 root
Bip01_Neck chest
L_humerus chest
R_humerus chest
weapon_bone chest
Bip01_Head Bip01_Neck
eye_left_bone Bip01_Head
eye_right_bone Bip01_Head
L_forearm L_humerus
L_front_hand L_forearm
L_weapon_bone L_forearm
L_front_hand01_01 L_front_hand
L_front_hand02_01 L_front_hand
L_front_hand03_01 L_front_hand
L_front_hand01_02 L_front_hand01_01
L_front_hand02_02 L_front_hand02_01
L_front_hand03_02 L_front_hand03_01
R_forearm R_humerus
R_front_hand R_forearm
R_weapon_bone R_forearm
R_front_hand01_01 R_front_hand
R_front_hand02_01 R_front_hand
R_front_hand03_01 R_front_hand
R_front_hand01_02 R_front_hand01_01
R_front_hand02_02 R_front_hand02_01
R_front_hand03_02 R_front_hand03_01
null_rope01_connect L_mid_tent01
Rope1_Seg01 null_rope01_connect
Rope1_Seg02 Rope1_Seg01
Rope1_Seg03 Rope1_Seg02
Rope1_Seg04 Rope1_Seg03
Rope1_Seg05 Rope1_Seg04
Rope1_Seg06 Rope1_Seg05
Rope1_Seg07 Rope1_Seg06
Rope1_Seg09 Rope1_Seg07
L_mid_hand01 Rope1_Seg09
L_mid_hand02 Rope1_Seg09
L_mid_hand03 Rope1_Seg09
null_rope02_connect R_mid_tent01
Rope2_Seg01 null_rope02_connect
Rope2_Seg02 Rope2_Seg01
Rope2_Seg03 Rope2_Seg02
Rope2_Seg04 Rope2_Seg03
Rope2_Seg05 Rope2_Seg04
Rope2_Seg06 Rope2_Seg05
Rope2_Seg07 Rope2_Seg06
Rope2_Seg09 Rope2_Seg07
R_mid_hand01 Rope2_Seg09
R_mid_hand02 Rope2_Seg09
R_mid_hand03 Rope2_Seg09
spine02 spine01
spine03 spine02
pelvis spine03
null_rope03_connect pelvis
null_rope04_connect pelvis
Rope3_Seg01 null_rope03_connect
Rope3_Seg02 Rope3_Seg01
Rope3_Seg03 Rope3_Seg02
Rope3_Seg04 Rope3_Seg03
Rope3_Seg05 Rope3_Seg04
Rope3_Seg06 Rope3_Seg05
Rope3_Seg07 Rope3_Seg06
Rope3_Seg08 Rope3_Seg07
Rope3_Seg09 Rope3_Seg08
R_rear_hand01 Rope3_Seg09
R_rear_hand02 Rope3_Seg09
R_rear_hand03 Rope3_Seg09
Rope4_Seg01 null_rope04_connect
Rope4_Seg02 Rope4_Seg01
Rope4_Seg03 Rope4_Seg02
Rope4_Seg04 Rope4_Seg03
Rope4_Seg05 Rope4_Seg04
Rope4_Seg06 Rope4_Seg05
Rope4_Seg07 Rope4_Seg06
Rope4_Seg08 Rope4_Seg07
Rope4_Seg09 Rope4_Seg08
L_rear_hand01 Rope4_Seg09
L_rear_hand02 Rope4_Seg09
L_rear_hand03 Rope4_Seg09
[BasePosition]
#SegmentName Tx, Ty, Tz, Rx, Ry, Rz, BoneLength
MASTER 0.000000 0.000000 0.000000 -90.000000 0.000000 0.000000 10.000000 
root 0.000000 0.000000 0.000000 0.000000 0.000000 0.000000 10.000000 
chest 0.000000 0.000000 0.000000 0.000000 0.000000 0.000000 10.000000 
L_mid_tent01 0.000000 0.000000 0.000000 0.000000 0.000000 0.000000 10.000000 
R_mid_tent01 0.000000 0.000000 0.000000 0.000000 0.000000 0.000000 10.000000 
spine01 0.000000 0.000000 0.000000 0.000000 0.000000 0.000000 10.000000 
Bip01_Neck 0.000000 0.000000 0.000000 0.000000 0.000000 0.000000 10.000000 
L_humerus 0.000000 0.000000 0.000000 0.000000 0.000000 0.000000 10.000000 
R_humerus 0.000000 0.000000 0.000000 0.000000 0.000000 0.000000 10.000000 
weapon_bone 0.000000 0.000000 0.000000 0.000000 0.000000 0.000000 10.000000 
Bip01_Head 0.000000 0.000000 0.000000 0.000000 0.000000 0.000000 10.000000 
eye_left_bone 0.000000 0.000000 0.000000 0.000000 0.000000 0.000000 10.000000 
eye_right_bone 0.000000 0.000000 0.000000 0.000000 0.000000 0.000000 10.000000 
L_forearm 0.000000 0.000000 0.000000 0.000000 0.000000 0.000000 10.000000 
L_front_hand 0.000000 0.000000 0.000000 0.000000 0.000000 0.000000 10.000000 
L_weapon_bone 0.000000 0.000000 0.000000 0.000000 0.000000 0.000000 10.000000 
L_front_hand01_01 0.000000 0.000000 0.000000 0.000000 0.000000 0.000000 10.000000 
L_front_hand02_01 0.000000 0.000000 0.000000 0.000000 0.000000 0.000000 10.000000 
L_front_hand03_01 0.000000 0.000000 0.000000 0.000000 0.000000 0.000000 10.000000 
L_front_hand01_02 0.000000 0.000000 0.000000 0.000000 0.000000 0.000000 10.000000 
L_front_hand02_02 0.000000 0.000000 0.000000 0.000000 0.000000 0.000000 10.000000 
L_front_hand03_02 0.000000 0.000000 0.000000 0.000000 0.000000 0.000000 10.000000 
R_forearm 0.000000 0.000000 0.000000 0.000000 0.000000 0.000000 10.000000 
R_front_hand 0.000000 0.000000 0.000000 0.000000 0.000000 0.000000 10.000000 
R_weapon_bone 0.000000 0.000000 0.000000 0.000000 0.000000 0.000000 10.000000 
R_front_hand01_01 0.000000 0.000000 0.000000 0.000000 0.000000 0.000000 10.000000 
R_front_hand02_01 0.000000 0.000000 0.000000 0.000000 0.000000 0.000000 10.000000 
R_front_hand03_01 0.000000 0.000000 0.000000 0.000000 0.000000 0.000000 10.000000 
R_front_hand01_02 0.000000 0.000000 0.000000 0.000000 0.000000 0.000000 10.000000 
R_front_hand02_02 0.000000 0.000000 0.000000 0.000000 0.000000 0.000000 10.000000 
R_front_hand03_02 0.000000 0.000000 0.000000 0.000000 0.000000 0.000000 10.000000 
null_rope01_connect 0.000000 0.000000 0.000000 0.000000 0.000000 0.000000 10.000000 
Rope1_Seg01 0.000000 0.000000 0.000000 0.000000 0.000000 0.000000 10.000000 
Rope1_Seg02 0.000000 0.000000 0.000000 0.000000 0.000000 0.000000 10.000000 
Rope1_Seg03 0.000000 0.000000 0.000000 0.000000 0.000000 0.000000 10.000000 
Rope1_Seg04 0.000000 0.000000 0.000000 0.000000 0.000000 0.000000 10.000000 
Rope1_Seg05 0.000000 0.000000 0.000000 0.000000 0.000000 0.000000 10.000000 
Rope1_Seg06 0.000000 0.000000 0.000000 0.000000 0.000000 0.000000 10.000000 
Rope1_Seg07 0.000000 0.000000 0.000000 0.000000 0.000000 0.000000 10.000000 
Rope1_Seg09 0.000000 0.000000 0.000000 0.000000 0.000000 0.000000 10.000000 
L_mid_hand01 0.000000 0.000000 0.000000 0.000000 0.000000 0.000000 10.000000 
L_mid_hand02 0.000000 0.000000 0.000000 0.000000 0.000000 0.000000 10.000000 
L_mid_hand03 0.000000 0.000000 0.000000 0.000000 0.000000 0.000000 10.000000 
null_rope02_connect 0.000000 0.000000 0.000000 0.000000 0.000000 0.000000 10.000000 
Rope2_Seg01 0.000000 0.000000 0.000000 0.000000 0.000000 0.000000 10.000000 
Rope2_Seg02 0.000000 0.000000 0.000000 0.000000 0.000000 0.000000 10.000000 
Rope2_Seg03 0.000000 0.000000 0.000000 0.000000 0.000000 0.000000 10.000000 
Rope2_Seg04 0.000000 0.000000 0.000000 0.000000 0.000000 0.000000 10.000000 
Rope2_Seg05 0.000000 0.000000 0.000000 0.000000 0.000000 0.000000 10.000000 
Rope2_Seg06 0.000000 0.000000 0.000000 0.000000 0.000000 0.000000 10.000000 
Rope2_Seg07 0.000000 0.000000 0.000000 0.000000 0.000000 0.000000 10.000000 
Rope2_Seg09 0.000000 0.000000 0.000000 0.000000 0.000000 0.000000 10.000000 
R_mid_hand01 0.000000 0.000000 0.000000 0.000000 0.000000 0.000000 10.000000 
R_mid_hand02 0.000000 0.000000 0.000000 0.000000 0.000000 0.000000 10.000000 
R_mid_hand03 0.000000 0.000000 0.000000 0.000000 0.000000 0.000000 10.000000 
spine02 0.000000 0.000000 0.000000 0.000000 0.000000 0.000000 10.000000 
spine03 0.000000 0.000000 0.000000 0.000000 0.000000 0.000000 10.000000 
pelvis 0.000000 0.000000 0.000000 0.000000 0.000000 0.000000 10.000000 
null_rope03_connect 0.000000 0.000000 0.000000 0.000000 0.000000 0.000000 10.000000 
null_rope04_connect 0.000000 0.000000 0.000000 0.000000 0.000000 0.000000 10.000000 
Rope3_Seg01 0.000000 0.000000 0.000000 0.000000 0.000000 0.000000 10.000000 
Rope3_Seg02 0.000000 0.000000 0.000000 0.000000 0.000000 0.000000 10.000000 
Rope3_Seg03 0.000000 0.000000 0.000000 0.000000 0.000000 0.000000 10.000000 
Rope3_Seg04 0.000000 0.000000 0.000000 0.000000 0.000000 0.000000 10.000000 
Rope3_Seg05 0.000000 0.000000 0.000000 0.000000 0.000000 0.000000 10.000000 
Rope3_Seg06 0.000000 0.000000 0.000000 0.000000 0.000000 0.000000 10.000000 
Rope3_Seg07 0.000000 0.000000 0.000000 0.000000 0.000000 0.000000 10.000000 
Rope3_Seg08 0.000000 0.000000 0.000000 0.000000 0.000000 0.000000 10.000000 
Rope3_Seg09 0.000000 0.000000 0.000000 0.000000 0.000000 0.000000 10.000000 
R_rear_hand01 0.000000 0.000000 0.000000 0.000000 0.000000 0.000000 10.000000 
R_rear_hand02 0.000000 0.000000 0.000000 0.000000 0.000000 0.000000 10.000000 
R_rear_hand03 0.000000 0.000000 0.000000 0.000000 0.000000 0.000000 10.000000 
Rope4_Seg01 0.000000 0.000000 0.000000 0.000000 0.000000 0.000000 10.000000 
Rope4_Seg02 0.000000 0.000000 0.000000 0.000000 0.000000 0.000000 10.000000 
Rope4_Seg03 0.000000 0.000000 0.000000 0.000000 0.000000 0.000000 10.000000 
Rope4_Seg04 0.000000 0.000000 0.000000 0.000000 0.000000 0.000000 10.000000 
Rope4_Seg05 0.000000 0.000000 0.000000 0.000000 0.000000 0.000000 10.000000 
Rope4_Seg06 0.000000 0.000000 0.000000 0.000000 0.000000 0.000000 10.000000 
Rope4_Seg07 0.000000 0.000000 0.000000 0.000000 0.000000 0.000000 10.000000 
Rope4_Seg08 0.000000 0.000000 0.000000 0.000000 0.000000 0.000000 10.000000 
Rope4_Seg09 0.000000 0.000000 0.000000 0.000000 0.000000 0.000000 10.000000 
L_rear_hand01 0.000000 0.000000 0.000000 0.000000 0.000000 0.000000 10.000000 
L_rear_hand02 0.000000 0.000000 0.000000 0.000000 0.000000 0.000000 10.000000 
L_rear_hand03 0.000000 0.000000 0.000000 0.000000 0.000000 0.000000 10.000000 
#Beginning of Data. Separated by tabs
#Fr	Tx	Ty	Tz	Rx	Ry	Rz	SF
[MASTER]
5 -0.000075 400.118561 0.000018 0.001660 0.001660 0.001660 400.118561
6 -0.000095 500.148346 0.000022 0.001660 0.001660 0.001660 500.148376
[root]
5 -10.142750 -3.427582 1423.835571 -91.727699 -11.583311 -89.471619 1423.875732
6 -11.525429 -6.086846 1413.838135 -91.727409 -11.583018 -89.471634 1413.898193
[chest]
5 -84.512650 -34.090519 0.000000 -2.167593 -0.116078 165.333481 91.129311
6 -84.512650 -34.090519 0.000000 -2.166650 -0.126451 165.044373 91.129311
[L_mid_tent01]
5 27.299088 22.179230 -249.918686 -19.706989 13.702751 15.639312 252.381683
6 27.299089 22.179220 -249.918686 -19.662798 12.237741 15.972145 252.381683
[R_mid_tent01]
5 23.228794 24.509907 226.238495 -166.417679 -13.900423 26.019499 228.744751
6 23.228794 24.509907 226.238495 -166.705612 -12.852390 26.502127 228.744751
[spine01]
5 -0.361383 -0.195265 0.000000 -0.000001 -0.000007 22.052340 0.410763
6 -0.361383 -0.195265 0.000000 -0.000001 -0.000007 22.052340 0.410763
[Bip01_Neck]
5 165.484543 71.581718 0.000119 176.643677 -1.657967 43.431911 180.302734
6 165.484543 71.581718 0.000119 176.643677 -1.657967 43.431911 180.302734
[L_humerus]
5 -13.983130 -135.272980 -120.471481 -8.145920 79.356842 79.002663 181.680161
6 -13.983130 -135.272980 -120.471481 -8.152538 80.193802 78.167046 181.680161
[R_humerus]
5 -13.983309 -135.273102 125.287651 45.186718 -76.897163 49.754963 184.909012
6 -13.983309 -135.273102 125.287651 46.636322 -77.221794 48.270519 184.909012
[weapon_bone]
5 235.964890 -300.705902 0.000000 0.000000 -89.951546 -128.212341 382.234833
6 235.964890 -300.705902 0.000000 0.000000 -89.951546 -128.212341 382.234833
[Bip01_Head]
5 213.432755 185.747147 11.366820 4.987259 10.061257 -43.762226 283.169128
6 213.457947 185.677551 12.267530 4.983087 9.611635 -43.777290 283.180054
[eye_left_bone]
5 -24.626970 125.451866 -64.772606 0.000000 -90.000000 -99.840431 143.318359
6 -24.626970 125.451866 -64.772606 0.000000 -90.000000 -99.840431 143.318359
[eye_right_bone]
5 -24.626970 125.451866 64.327362 0.000000 -89.965736 80.156380 143.117676
6 -24.626970 125.451866 64.327362 0.000000 -89.980217 80.156387 143.117676
[L_forearm]
5 322.776093 0.000000 -0.000119 0.000396 -0.002314 -109.419975 322.776093
6 322.776093 0.000000 -0.000119 0.000396 -0.002314 -109.419975 322.776093
[L_front_hand]
5 241.149185 -0.042021 -3.300071 -178.667953 -1.835447 -27.422342 241.171753
6 241.149185 -0.042021 -3.300071 -178.667953 -1.835447 -27.422350 241.171753
[L_weapon_bone]
5 156.183838 0.000000 0.000000 0.000014 0.000007 0.000001 156.183838
6 156.183838 0.000000 0.000000 0.000014 0.000007 0.000001 156.183838
[L_front_hand01_01]
5 86.095154 20.947098 -0.655860 -0.358124 -0.483585 74.301987 88.609184
6 86.095154 20.947098 -0.655860 -0.349230 -0.490139 73.139862 88.609184
[L_front_hand02_01]
5 86.935165 -11.437475 24.513514 152.741364 -59.405788 -59.444736 91.046425
6 86.935165 -11.437475 24.513514 151.025055 -58.854893 -57.448074 91.046425
[L_front_hand03_01]
5 86.637497 -14.123976 -20.424902 -152.381119 57.628048 -60.890831 90.126129
6 86.637497 -14.123976 -20.424902 -150.781433 57.074539 -58.996449 90.126129
[L_front_hand01_02]
5 71.020905 -0.000179 0.000030 0.000319 -0.002325 -105.611748 71.020905
6 71.020905 -0.000179 0.000030 0.000318 -0.002326 -105.574486 71.020905
[L_front_hand02_02]
5 71.020927 -0.000119 0.000060 0.000319 -0.002325 -105.611748 71.020927
6 71.020927 -0.000119 0.000060 0.000318 -0.002326 -105.574486 71.020927
[L_front_hand03_02]
5 71.020905 -0.000060 0.000060 0.000319 -0.002325 -105.611748 71.020905
6 71.020905 -0.000060 0.000060 0.000318 -0.002326 -105.574486 71.020905
[R_forearm]
5 322.776428 -0.000060 0.000030 0.202103 0.065158 -108.062820 322.776428
6 322.776428 -0.000060 0.000030 0.202103 0.065158 -108.062805 322.776428
[R_front_hand]
5 238.847015 -0.006795 2.210259 -2.635298 -10.645461 -26.312506 238.857239
6 238.847015 -0.006795 2.210259 -2.635298 -10.645461 -26.312506 238.857239
[R_weapon_bone]
5 155.664093 0.002503 -0.000030 0.003487 0.001180 -90.988930 155.664078
6 155.664093 0.002503 -0.000030 0.003487 0.001180 -90.988930 155.664078
[R_front_hand01_01]
5 87.624611 14.231146 22.918642 -153.171539 -59.529896 60.052429 91.683487
6 87.624611 14.231146 22.918642 -151.601074 -59.040489 58.224773 91.683487
[R_front_hand02_01]
5 89.356956 14.367283 -19.491137 153.232147 57.885738 62.134083 92.579636
6 89.356956 14.367283 -19.491137 151.761566 57.399368 60.393955 92.579636
[R_front_hand03_01]
5 87.286232 -22.307278 -0.143439 0.154710 -0.427505 -74.818459 90.091743
6 87.286232 -22.307278 -0.143439 0.146836 -0.431871 -73.769867 90.091743
[R_front_hand01_02]
5 71.020905 0.000060 0.000119 0.002323 -0.000334 106.381714 71.020905
6 71.020905 0.000060 0.000119 0.002323 -0.000334 106.381714 71.020905
[R_front_hand02_02]
5 71.020844 -0.000030 -0.000119 0.002323 -0.000334 106.381714 71.020836
6 71.020844 -0.000030 -0.000119 0.002323 -0.000334 106.381714 71.020836
[R_front_hand03_02]
5 71.020905 0.000000 0.000030 0.002323 -0.000334 106.381714 71.020905
6 71.020905 0.000000 0.000030 0.002323 -0.000334 106.381714 71.020905
[null_rope01_connect]
5 328.732483 0.000000 -0.000238 -152.668533 -64.744568 -123.562424 328.732483
6 328.732483 0.000000 -0.000238 -155.708115 -65.508339 -120.620857 328.732483
[Rope1_Seg01]
5 -0.000008 0.000031 0.000031 95.091866 -4.384922 -95.914978 0.000044
6 -0.000010 0.000029 0.000038 98.037354 -5.736864 -94.691956 0.000049
[Rope1_Seg02]
5 139.999863 -0.000179 0.000000 -4.748023 -1.494184 -2.758379 139.999863
6 139.999863 -0.000179 0.000000 -5.429274 -1.877485 -2.964998 139.999863
[Rope1_Seg03]
5 139.999924 0.000060 -0.000060 -6.537290 -3.235088 -2.529518 139.999924
6 139.999924 0.000060 -0.000060 -7.459131 -3.862651 -2.613044 139.999924
[Rope1_Seg04]
5 139.999924 -0.000060 -0.000119 -2.519621 0.131234 -2.657938 139.999924
6 139.999924 -0.000060 -0.000119 -3.129072 -0.051962 -3.049909 139.999924
[Rope1_Seg05]
5 139.999832 0.000119 -0.000060 6.268785 6.966623 -0.390484 139.999832
6 139.999832 0.000119 -0.000060 6.911343 8.142932 -0.717799 139.999832
[Rope1_Seg06]
5 139.999954 0.000119 -0.000060 2.213547 3.094277 -0.542253 139.999954
6 139.999954 0.000119 -0.000060 2.318518 3.549783 -0.767836 139.999954
[Rope1_Seg07]
5 139.999985 0.000060 0.000000 0.876517 1.473926 -0.432226 139.999985
6 139.999985 0.000060 0.000000 0.874052 1.648023 -0.559549 139.999985
[Rope1_Seg09]
5 121.602913 0.000119 -0.000089 -89.793175 -1.359789 0.847147 121.602913
6 121.602913 0.000119 -0.000089 -89.793175 -1.359789 0.847147 121.602913
[L_mid_hand01]
5 103.859421 1.038730 8.195221 115.408714 -54.701881 -21.722248 104.187431
6 103.859421 1.038730 8.195221 112.493240 -49.600185 -18.031643 104.187431
[L_mid_hand02]
5 105.572853 -4.139662 -10.864139 -156.174301 38.799179 -54.227295 106.211075
6 105.572853 -4.139662 -10.864139 -152.303986 36.371010 -47.886745 106.211075
[L_mid_hand03]
5 104.641464 17.579376 -3.913581 -10.556284 15.605946 59.190216 106.179977
6 104.641464 17.579376 -3.913581 -12.027911 14.512395 53.523804 106.179977
[null_rope02_connect]
5 328.732849 0.000179 -0.000119 -146.487976 72.001740 -40.223061 328.732849
6 328.732849 0.000179 -0.000119 -148.524872 72.965805 -41.950050 328.732849
[Rope2_Seg01]
5 0.000095 0.000153 0.000015 -4.883979 3.469837 -55.424873 0.000181
6 0.000095 0.000153 0.000019 -13.537699 1.545338 -59.084751 0.000181
[Rope2_Seg02]
5 139.999741 -0.000060 -0.000119 -4.305439 4.772966 -4.889934 139.999756
6 139.999741 -0.000060 -0.000119 -1.145092 6.155417 -3.448305 139.999756
[Rope2_Seg03]
5 140.000107 0.000030 0.000000 9.478993 5.418708 4.660247 140.000107
6 140.000107 0.000030 0.000000 9.004721 5.698621 4.479910 140.000107
[Rope2_Seg04]
5 139.999802 0.000000 -0.000060 -9.997212 -1.271621 -8.001519 139.999802
6 139.999802 0.000000 -0.000060 -8.916535 -0.715671 -7.722062 139.999802
[Rope2_Seg05]
5 139.999985 -0.000060 0.000119 -21.835934 -4.597213 -22.392855 139.999985
6 139.999985 -0.000060 0.000119 -18.234043 -3.629210 -18.944340 139.999985
[Rope2_Seg06]
5 139.999893 -0.000030 -0.000119 -8.277909 2.580775 -12.928467 139.999893
6 139.999893 -0.000030 -0.000119 -7.227640 1.636628 -10.568539 139.999893
[Rope2_Seg07]
5 139.999893 0.000060 -0.000060 -2.989137 2.325840 -6.252475 139.999893
6 139.999893 0.000060 -0.000060 -3.028474 1.711794 -5.572613 139.999893
[Rope2_Seg09]
5 121.338966 0.000089 -0.000060 33.793236 -1.359788 -0.847141 121.338966
6 121.338966 0.000089 -0.000060 33.793236 -1.359788 -0.847141 121.338966
[R_mid_hand01]
5 104.680779 11.144459 -10.335981 -22.984858 42.734222 60.718655 105.778534
6 104.680779 11.144459 -10.335981 -25.740593 41.350704 56.606117 105.778534
[R_mid_hand02]
5 104.070427 2.443552 8.231699 58.419544 -61.729733 28.969135 104.424065
6 104.070427 2.443552 8.231699 61.371151 -58.827457 25.571609 104.424065
[R_mid_hand03]
5 106.028137 -11.221827 -5.996406 -175.069138 15.041782 -68.893341 106.788818
6 106.028137 -11.221827 -5.996406 -174.179749 14.727765 -65.439743 106.788818
[spine02]
5 129.756927 0.001550 0.000119 0.360061 -4.044797 -12.915058 129.756927
6 129.756927 0.001550 0.000119 0.360061 -4.044797 -12.915057 129.756927
[spine03]
5 78.614059 0.081742 -4.899004 1.896494 3.831287 16.473045 78.766594
6 78.614052 0.081742 -4.899003 1.896495 3.831288 16.473045 78.766586
[pelvis]
5 169.435242 0.051022 0.000000 -0.060465 -0.180225 14.087930 169.435257
6 169.435242 0.051022 0.000000 -0.060465 -0.180225 14.087930 169.435257
[null_rope03_connect]
5 -1.257226 -2.466202 137.391083 156.189529 -89.382614 -94.290176 137.418976
6 -1.257226 -2.466202 137.391083 156.154022 -89.383881 -94.255119 137.418976
[null_rope04_connect]
5 -1.259640 -2.480268 -137.844437 156.189529 -89.382614 -94.290176 137.872513
6 -1.259640 -2.480268 -137.844437 156.154022 -89.383881 -94.255119 137.872513
[Rope3_Seg01]
5 -0.000021 -0.000031 0.000000 20.484749 21.525743 -70.458252 0.000037
6 -0.000021 -0.000038 0.000000 19.705860 19.891876 -71.917557 0.000044
[Rope3_Seg02]
5 139.999924 -0.000119 0.000060 0.689310 1.295278 -4.408499 139.999924
6 139.999924 -0.000119 0.000060 0.701022 1.999926 -5.320387 139.999924
[Rope3_Seg03]
5 139.999924 -0.000119 0.000119 0.492303 1.423977 -3.925152 139.999924
6 139.999924 -0.000119 0.000119 0.424473 2.113091 -4.720764 139.999924
[Rope3_Seg04]
5 139.999924 0.000119 0.000000 0.409797 3.321905 -2.821834 139.999924
6 139.999924 0.000119 0.000000 0.205266 3.583118 -4.253223 139.999924
[Rope3_Seg05]
5 139.999924 -0.000238 0.000060 0.265225 -1.325340 -3.959020 139.999924
6 139.999924 -0.000238 0.000060 0.191212 -1.284320 -3.225699 139.999924
[Rope3_Seg06]
5 139.999893 -0.000119 -0.000060 0.802103 -6.509162 -5.524937 139.999893
6 139.999893 -0.000119 -0.000060 0.743701 -5.940633 -2.557922 139.999893
[Rope3_Seg07]
5 139.999771 0.000060 -0.000119 1.029228 -5.357893 -4.801101 139.999771
6 139.999771 0.000060 -0.000119 0.954336 -4.575234 -2.407584 139.999771
[Rope3_Seg08]
5 139.999985 -0.000060 0.000000 0.878341 -3.323500 -3.260184 139.999985
6 139.999985 -0.000060 0.000000 0.879188 -2.917968 -1.816720 139.999985
[Rope3_Seg09]
5 90.185997 -0.000179 -0.000060 89.793228 -1.359877 -0.847183 90.185997
6 90.185997 -0.000179 -0.000060 89.793228 -1.359877 -0.847183 90.185997
[R_rear_hand01]
5 103.366196 -6.073594 -10.757982 -173.471771 23.840069 -63.595013 104.101845
6 103.366196 -6.073594 -10.757982 -171.684540 23.302565 -59.125771 104.101845
[R_rear_hand02]
5 100.509819 12.039542 -7.992327 -19.370905 34.238888 61.013897 101.543350
6 100.509819 12.039542 -7.992327 -21.930750 32.777496 56.381863 101.543350
[R_rear_hand03]
5 101.539970 5.215704 5.435467 77.523743 -62.710114 14.990737 101.819031
6 101.539970 5.215704 5.435467 79.009171 -58.663548 13.282337 101.819031
[Rope4_Seg01]
5 -0.000017 -0.000061 -0.000153 -96.768021 22.179272 -93.712608 0.000165
6 -0.000017 -0.000057 -0.000153 -96.847000 21.209690 -93.998695 0.000164
[Rope4_Seg02]
5 139.999985 0.000060 0.000119 0.092431 -2.347640 -0.084331 139.999985
6 139.999985 0.000060 0.000119 0.090610 -2.045966 0.004988 139.999985
[Rope4_Seg03]
5 139.999924 0.000000 -0.000238 0.208681 -4.355259 -0.758568 139.999924
6 139.999924 0.000000 -0.000238 0.169060 -3.633201 -0.597484 139.999924
[Rope4_Seg04]
5 139.999985 0.000000 0.000119 0.981709 -12.387203 -3.617701 139.999985
6 139.999985 0.000000 0.000119 0.584959 -9.309848 -2.834949 139.999985
[Rope4_Seg05]
5 139.999802 -0.000060 -0.000119 1.280691 18.934303 8.108959 139.999802
6 139.999802 -0.000060 -0.000119 1.045750 14.155471 7.193145 139.999802
[Rope4_Seg06]
5 139.999924 0.000000 0.000060 1.416210 17.686588 6.988473 139.999924
6 139.999924 0.000000 0.000060 0.757417 12.552241 5.734583 139.999924
[Rope4_Seg07]
5 139.999802 0.000000 0.000000 0.372260 5.472610 2.158566 139.999802
6 139.999802 0.000000 0.000000 0.195411 4.253147 2.018352 139.999802
[Rope4_Seg08]
5 139.999924 0.000000 0.000119 -1.329040 2.968303 1.154688 139.999924
6 139.999924 0.000000 0.000119 -1.438842 2.410094 1.133999 139.999924
[Rope4_Seg09]
5 90.185791 0.000060 0.000060 -135.617828 2.228885 0.850567 90.185791
6 90.185791 0.000060 0.000060 -135.617828 2.228885 0.850567 90.185791
[L_rear_hand01]
5 101.696655 -8.392275 -7.654577 -28.015862 -27.942142 135.607529 102.329041
6 101.696655 -8.392275 -7.654577 -30.719053 -24.879360 141.681381 102.329041
[L_rear_hand02]
5 102.726799 -1.568258 5.773216 81.577332 47.415264 169.913025 102.900848
6 102.726799 -1.568258 5.773216 82.428497 41.230476 171.131027 102.900848
[L_rear_hand03]
5 104.552910 9.721220 -10.420293 -167.078079 -21.194330 -132.993347 105.519653
6 104.552910 9.721220 -10.420293 -164.822937 -19.676035 -139.457687 105.519653
